<?xml version="1.0" encoding="iso-8859-1"?>
<!-- Generator: Adobe Illustrator 19.0.0, SVG Export Plug-In . SVG Version: 6.00 Build 0)  -->
<svg version="1.1" id="Capa_1" xmlns="http://www.w3.org/2000/svg" xmlns:xlink="http://www.w3.org/1999/xlink" x="0px" y="0px"
	 viewBox="0 0 448 448" style="enable-background:new 0 0 448 448;" xml:space="preserve">
<path style="fill:#168DE2;" d="M172,0l26.256,85.344c24.399,79.295,20.468,164.605-11.12,241.32L180,344l17.824-3.816
	c62.018-13.291,126.198-12.788,188,1.472L396,344c4.838-145.152-78.594-278.814-211.12-338.224L172,0z"/>
<path style="fill:#FFCB5A;" d="M140,24l8.864,15.504C202.809,133.918,202.48,249.894,148,344c-35.76-15.328-76.24-15.328-112,0
	l10.496-21c35.52-71.036,61.705-146.368,77.904-224.12L140,24z"/>
<path style="fill:#454545;" d="M20,384h124.88c28.654-0.001,57.215-3.254,85.136-9.696l20-4.608
	c27.91-6.439,56.461-9.692,85.104-9.696H428l-39.496,62.064c-10.28,16.154-28.1,25.937-47.248,25.936H82.168
	c-13.792,0-26.61-7.105-33.92-18.8L20,384z"/>
<g>
</g>
<g>
</g>
<g>
</g>
<g>
</g>
<g>
</g>
<g>
</g>
<g>
</g>
<g>
</g>
<g>
</g>
<g>
</g>
<g>
</g>
<g>
</g>
<g>
</g>
<g>
</g>
<g>
</g>
</svg>
